<?xml version="1.0" encoding="utf-8"?>
<!-- Generator: Adobe Illustrator 16.1.0, SVG Export Plug-In . SVG Version: 6.00 Build 0)  -->
<!DOCTYPE svg PUBLIC "-//W3C//DTD SVG 1.1//EN" "http://www.w3.org/Graphics/SVG/1.1/DTD/svg11.dtd">
<svg version="1.1" id="Layer_5" xmlns="http://www.w3.org/2000/svg" xmlns:xlink="http://www.w3.org/1999/xlink" x="0px" y="0px"
	 width="75px" height="75px" viewBox="0 0 75 75" enable-background="new 0 0 75 75" xml:space="preserve">
<g display="none">
	<path display="inline" d="M-26.232-139.724l-0.051,2.453c-0.004,0.155-0.132,0.266-0.273,0.263l-0.409-0.01
		c-0.142-0.002-0.266-0.117-0.262-0.272l0.123-5.978c0.003-0.155,0.132-0.266,0.273-0.263l0.408,0.009
		c0.141,0.003,0.266,0.117,0.263,0.273l-0.051,2.453l8.656,0.178c0.142,0.002,0.267,0.133,0.264,0.273l-0.012,0.535
		c-0.003,0.141-0.132,0.266-0.273,0.263L-26.232-139.724z"/>
	<path display="inline" d="M-26.741-145.641c-0.141-0.014-0.255-0.152-0.24-0.293l0.054-0.547c0.016-0.154,0.152-0.255,0.293-0.24
		l4.1,0.405l0.563-5.699l-4.101-0.406c-0.139-0.014-0.255-0.139-0.239-0.294l0.055-0.546c0.014-0.141,0.152-0.255,0.293-0.241
		l9.293,0.92c0.141,0.014,0.253,0.152,0.24,0.292l-0.054,0.547c-0.016,0.155-0.153,0.256-0.293,0.242l-4.254-0.421l-0.563,5.699
		l4.253,0.421c0.141,0.014,0.256,0.139,0.241,0.293l-0.055,0.548c-0.014,0.14-0.152,0.253-0.293,0.24L-26.741-145.641z"/>
	<path display="inline" d="M-25.403-156.958c-0.139-0.025-0.242-0.161-0.214-0.312l1.027-5.459c0.029-0.152,0.175-0.239,0.313-0.214
		l0.401,0.076c0.139,0.026,0.243,0.16,0.214,0.312l-0.876,4.655l3.38,0.637l0.749-3.977c0.026-0.14,0.175-0.239,0.312-0.214
		l0.402,0.076c0.151,0.028,0.239,0.174,0.214,0.312l-0.749,3.977l3.532,0.665l0.877-4.655c0.029-0.152,0.175-0.239,0.313-0.213
		l0.401,0.075c0.139,0.025,0.242,0.16,0.214,0.312l-1.028,5.459c-0.028,0.152-0.174,0.24-0.312,0.214L-25.403-156.958z"/>
	<path display="inline" d="M-21.881-173.315c0.852-2.688,3.696-4.154,6.386-3.303c2.688,0.852,4.145,3.68,3.293,6.368
		s-3.666,4.148-6.354,3.298C-21.246-167.804-22.732-170.628-21.881-173.315z M-13.144-170.548c0.677-2.138-0.513-4.452-2.65-5.129
		c-2.137-0.677-4.47,0.521-5.146,2.659c-0.676,2.138,0.545,4.447,2.682,5.124C-16.121-167.217-13.82-168.411-13.144-170.548z"/>
	<path display="inline" d="M-18.902-180.607c-0.13-0.054-0.204-0.208-0.145-0.35l2.141-5.13c0.06-0.142,0.221-0.197,0.35-0.143
		l0.378,0.157c0.131,0.054,0.204,0.207,0.145,0.351l-1.826,4.373l3.566,1.488l1.559-3.735c0.056-0.13,0.222-0.199,0.352-0.144
		l0.378,0.157c0.129,0.055,0.198,0.221,0.143,0.351l-1.558,3.735l3.553,1.483c0.131,0.054,0.199,0.22,0.145,0.351l-0.212,0.506
		c-0.061,0.145-0.221,0.199-0.351,0.146L-18.902-180.607z"/>
	<path display="inline" d="M-15.481-188.454c-0.125-0.063-0.188-0.222-0.117-0.36l2.513-4.953c0.07-0.139,0.234-0.182,0.36-0.118
		l0.364,0.185c0.126,0.064,0.188,0.222,0.118,0.361l-2.144,4.225l3.445,1.748l1.83-3.608c0.064-0.126,0.233-0.182,0.36-0.118
		l0.365,0.186c0.125,0.063,0.18,0.234,0.117,0.36l-1.831,3.608l3.433,1.741c0.126,0.063,0.182,0.234,0.118,0.36l-0.249,0.49
		c-0.071,0.139-0.234,0.182-0.359,0.118L-15.481-188.454z"/>
	<path display="inline" d="M-11.542-195.899c-0.122-0.07-0.169-0.244-0.1-0.366l0.283-0.488c0.071-0.122,0.244-0.169,0.365-0.098
		l8.082,4.667c0.122,0.069,0.168,0.243,0.098,0.366l-0.282,0.488c-0.07,0.121-0.243,0.168-0.365,0.097L-11.542-195.899z"/>
	<path display="inline" d="M-7.232-203.6c0.789-1.186,1.77-1.768,2.981-2.112c0.156-0.031,0.305,0.051,0.337,0.207l0.104,0.527
		c0.056,0.171-0.019,0.258-0.214,0.298c-0.935,0.258-1.842,0.857-2.372,1.655c-1.235,1.854-0.62,4.312,1.2,5.523
		c1.807,1.203,4.312,0.822,5.547-1.032c0.68-1.021,0.667-1.893,0.612-2.826c-0.016-0.182,0.059-0.267,0.152-0.306l0.551-0.14
		c0.133-0.048,0.282,0.084,0.31,0.222c0.242,1.313-0.066,2.564-0.761,3.609c-1.562,2.346-4.686,2.993-7.032,1.431
		C-8.164-198.106-8.796-201.252-7.232-203.6z"/>
	<path display="inline" d="M-3.398-208.28c-0.111-0.085-0.135-0.264-0.05-0.376l0.341-0.449c0.086-0.112,0.263-0.136,0.376-0.051
		l7.435,5.646c0.112,0.085,0.137,0.264,0.051,0.375l-0.341,0.449c-0.086,0.113-0.264,0.137-0.376,0.052L-3.398-208.28z"/>
	<path display="inline" d="M5.42-204.745l-4.406-9.433c-0.037-0.088-0.045-0.188,0.038-0.283l0.092-0.108
		c0.083-0.095,0.183-0.103,0.274-0.079l9.973,2.951c0.194,0.056,0.26,0.261,0.122,0.421l-0.368,0.428
		c-0.082,0.097-0.201,0.105-0.273,0.081l-2.444-0.725l-3.262,3.798l1.095,2.296c0.035,0.067,0.044,0.187-0.038,0.283l-0.368,0.427
		C5.716-204.528,5.504-204.561,5.42-204.745z M7.516-211.772c-1.616-0.478-3.234-0.975-4.851-1.451l-0.073,0.085l2.168,4.575
		L7.516-211.772z"/>
	<path display="inline" d="M5.857-219.167c-0.1-0.099-0.109-0.269,0-0.379l0.388-0.39c0.1-0.1,0.279-0.102,0.379-0.001l6.136,6.108
		l2.866-2.878c0.109-0.11,0.279-0.101,0.379-0.001l0.29,0.289c0.099,0.099,0.11,0.269,0.001,0.379l-3.442,3.457
		c-0.109,0.11-0.279,0.101-0.379,0.003L5.857-219.167z"/>
	<path display="inline" d="M18.341-219.9c0-0.11-0.01-0.23-0.01-0.34c-0.008-0.232,0.039-0.417,0.299-0.414
		c0.13,0.002,1.552,0.103,2.517-0.7c0.877-0.731,0.991-1.761,0.459-2.4c-0.622-0.747-1.642-0.65-3.32-0.134
		c-1.625,0.473-2.745,0.58-3.773-0.655c-0.613-0.736-1.021-2.415,0.702-3.849c1.062-0.884,2.312-0.99,2.312-0.99
		c0.092-0.021,0.33,0.001,0.372,0.314c0.011,0.101,0.029,0.213,0.041,0.313c0.028,0.233-0.044,0.367-0.298,0.414
		c-0.112,0.02-1.174,0.133-1.834,0.682c-1.148,0.957-0.883,1.981-0.503,2.438c0.604,0.726,1.508,0.688,2.733,0.31
		c1.958-0.621,3.36-0.854,4.407,0.403c0.938,1.127,0.551,2.843-0.717,3.898c-1.278,1.063-2.768,1.038-3.017,1.025
		C18.562-219.589,18.382-219.586,18.341-219.9z"/>
	<path display="inline" d="M21.373-231.839l-1.983,1.444c-0.126,0.092-0.292,0.055-0.374-0.059l-0.241-0.331
		c-0.083-0.113-0.066-0.283,0.059-0.373l4.833-3.521c0.125-0.092,0.291-0.055,0.374,0.059l0.241,0.33
		c0.083,0.115,0.066,0.283-0.059,0.375l-1.984,1.444l5.098,6.999c0.083,0.113,0.055,0.291-0.06,0.374l-0.433,0.314
		c-0.114,0.084-0.291,0.056-0.374-0.058L21.373-231.839z"/>
	<path display="inline" d="M29.065-226.934l-1.425-10.312c-0.009-0.094,0.013-0.192,0.119-0.259l0.121-0.075
		c0.107-0.067,0.204-0.047,0.284,0.004l8.657,5.763c0.169,0.11,0.171,0.325-0.008,0.438l-0.478,0.3
		c-0.107,0.066-0.224,0.041-0.285-0.004l-2.122-1.413l-4.237,2.665l0.369,2.518c0.013,0.074-0.013,0.19-0.12,0.259l-0.478,0.3
		C29.285-226.639,29.092-226.733,29.065-226.934z M33.143-233.029c-1.403-0.933-2.802-1.885-4.205-2.817l-0.096,0.06l0.721,5.009
		L33.143-233.029z"/>
	<path display="inline" d="M34.733-241.412c-0.025-0.113,0.037-0.239,0.139-0.291l0.2-0.1c0.088-0.045,0.222-0.032,0.285,0.031
		l5.976,5.693c0.024-0.013,0.038-0.019,0.063-0.031l-1.023-8.177c-0.014-0.088,0.057-0.201,0.146-0.246l0.201-0.102
		c0.1-0.051,0.237-0.025,0.314,0.062l5.871,7.655c0.125,0.157,0.113,0.32-0.076,0.416l-0.504,0.253
		c-0.102,0.05-0.246,0.013-0.314-0.063l-4.375-5.929c-0.013,0.007-0.037,0.02-0.051,0.024l1.018,7.816
		c0.013,0.089-0.069,0.209-0.146,0.247l-0.227,0.113c-0.076,0.037-0.222,0.032-0.283-0.031l-5.681-5.479
		c-0.012,0.006-0.037,0.019-0.05,0.025l2.156,7.04c0.032,0.095-0.037,0.24-0.14,0.29l-0.503,0.253
		c-0.188,0.095-0.327,0.007-0.378-0.188L34.733-241.412z"/>
	<path display="inline" d="M45.425-246.244c-0.052-0.132,0.009-0.291,0.151-0.348l2.904-1.129c1.615-0.629,3.453,0.168,4.072,1.757
		c0.633,1.63-0.179,3.474-1.781,4.098l-2.166,0.843l1.201,3.088c0.051,0.131-0.021,0.295-0.152,0.347l-0.5,0.194
		c-0.145,0.055-0.295-0.021-0.346-0.153L45.425-246.244z M50.316-242.809c1.076-0.419,1.652-1.657,1.215-2.787
		c-0.414-1.063-1.65-1.521-2.729-1.102l-2.089,0.812l1.515,3.889L50.316-242.809z"/>
	<path display="inline" d="M61.204-251.911c2.731-0.699,5.479,0.94,6.178,3.672c0.699,2.73-0.931,5.462-3.661,6.161
		c-2.73,0.698-5.459-0.917-6.158-3.648C56.863-248.458,58.473-251.212,61.204-251.911z M63.477-243.034
		c2.17-0.556,3.504-2.789,2.949-4.96c-0.556-2.172-2.806-3.517-4.977-2.961c-2.174,0.556-3.486,2.812-2.932,4.984
		C59.074-243.8,61.305-242.479,63.477-243.034z"/>
	<path display="inline" d="M69-253.235c-0.021-0.141,0.068-0.282,0.223-0.308l5.481-0.89c0.153-0.025,0.284,0.082,0.308,0.222
		l0.065,0.403c0.022,0.14-0.068,0.282-0.222,0.308l-4.676,0.759l0.618,3.812l3.993-0.647c0.139-0.023,0.285,0.082,0.309,0.221
		l0.064,0.404c0.021,0.138-0.082,0.283-0.223,0.307l-3.992,0.648l0.615,3.799c0.022,0.14-0.082,0.285-0.222,0.308l-0.543,0.088
		c-0.151,0.025-0.284-0.082-0.308-0.222L69-253.235z"/>
	<path display="inline" d="M82.178-254.196l-2.447,0.16c-0.153,0.01-0.274-0.109-0.283-0.25l-0.026-0.408
		c-0.01-0.141,0.095-0.274,0.25-0.285l5.966-0.388c0.153-0.01,0.274,0.108,0.283,0.25l0.025,0.408
		c0.011,0.14-0.094,0.274-0.248,0.284l-2.448,0.158l0.562,8.64c0.01,0.141-0.108,0.275-0.25,0.284l-0.535,0.035
		c-0.141,0.009-0.274-0.109-0.283-0.25L82.178-254.196z"/>
	<path display="inline" d="M87.82-255.131c-0.002-0.141,0.123-0.271,0.265-0.272l0.563-0.009c0.142-0.002,0.271,0.123,0.271,0.264
		l0.15,9.334c0.004,0.141-0.121,0.27-0.264,0.271l-0.562,0.01c-0.141,0.001-0.27-0.124-0.273-0.264L87.82-255.131z"/>
	<path display="inline" d="M93.45-255.383c0.034-0.11,0.151-0.188,0.266-0.183l0.226,0.013c0.1,0.006,0.207,0.082,0.23,0.168
		l2.352,7.918c0.029,0.002,0.043,0.002,0.069,0.004l3.185-7.605c0.033-0.083,0.15-0.147,0.248-0.142l0.227,0.012
		c0.111,0.008,0.221,0.099,0.241,0.213l1.284,9.566c0.031,0.199-0.062,0.336-0.272,0.323l-0.563-0.031
		c-0.111-0.006-0.219-0.112-0.242-0.212l-0.844-7.323c-0.016-0.001-0.043-0.003-0.058-0.003l-3.011,7.29
		c-0.033,0.083-0.163,0.146-0.248,0.143l-0.253-0.016c-0.085-0.005-0.207-0.083-0.229-0.169L93.854-253
		c-0.015-0.001-0.041-0.003-0.056-0.003l-1.635,7.184c-0.021,0.098-0.151,0.189-0.265,0.183l-0.563-0.031
		c-0.212-0.012-0.287-0.157-0.235-0.353L93.45-255.383z"/>
	<path display="inline" d="M109.553-254.003c2.782,0.457,4.641,3.064,4.182,5.847c-0.457,2.784-3.047,4.631-5.83,4.173
		c-2.783-0.457-4.633-3.034-4.174-5.818C104.188-252.584,106.77-254.461,109.553-254.003z M108.062-244.957
		c2.213,0.364,4.334-1.146,4.697-3.359c0.364-2.212-1.156-4.348-3.369-4.713c-2.213-0.363-4.324,1.177-4.688,3.388
		C104.34-247.428,105.852-245.321,108.062-244.957z"/>
	<path display="inline" d="M118.191-251.116l-2.379-0.598c-0.149-0.038-0.229-0.188-0.193-0.325l0.1-0.396
		c0.034-0.137,0.176-0.233,0.325-0.194l5.797,1.456c0.15,0.037,0.229,0.188,0.194,0.324l-0.1,0.396
		c-0.035,0.137-0.176,0.231-0.326,0.195l-2.379-0.598l-2.106,8.395c-0.034,0.137-0.188,0.229-0.325,0.194l-0.52-0.131
		c-0.137-0.034-0.229-0.188-0.194-0.324L118.191-251.116z"/>
	<path display="inline" d="M124.104-250.271c0.045-0.133,0.205-0.212,0.34-0.167l0.52,0.177c0.146,0.05,0.214,0.206,0.168,0.339
		l-1.318,3.899l5.422,1.833l1.318-3.899c0.045-0.133,0.192-0.217,0.34-0.168l0.521,0.178c0.133,0.044,0.213,0.204,0.167,0.339
		l-2.989,8.839c-0.047,0.134-0.206,0.213-0.34,0.167l-0.521-0.175c-0.147-0.05-0.213-0.206-0.17-0.34l1.369-4.047l-5.42-1.832
		l-1.369,4.045c-0.045,0.134-0.191,0.218-0.34,0.168l-0.521-0.176c-0.133-0.046-0.213-0.206-0.168-0.34L124.104-250.271z"/>
	<path display="inline" d="M134.702-241.187l-1.229-5.678c-0.029-0.213,0.162-0.374,0.37-0.284l0.607,0.266
		c0.09,0.039,0.14,0.138,0.155,0.206l1.035,4.747l4.188-2.466c0.061-0.035,0.167-0.065,0.257-0.026l0.606,0.266
		c0.207,0.091,0.221,0.343,0.043,0.465l-5.032,2.927l-1.802,4.123c-0.057,0.129-0.223,0.194-0.353,0.138l-0.505-0.22
		c-0.143-0.062-0.193-0.225-0.139-0.354L134.702-241.187z"/>
	<path display="inline" d="M140.984-234.607c0.104-0.039,0.213-0.092,0.316-0.13c0.213-0.091,0.401-0.113,0.492,0.131
		c0.045,0.122,0.459,1.486,1.553,2.1c0.998,0.559,2.002,0.298,2.408-0.429c0.477-0.849,0.021-1.767-1.062-3.149
		c-1.021-1.35-1.523-2.358-0.736-3.76c0.469-0.837,1.893-1.817,3.848-0.721c1.205,0.677,1.752,1.807,1.752,1.807
		c0.053,0.079,0.117,0.309-0.16,0.46c-0.092,0.046-0.188,0.104-0.279,0.15c-0.207,0.11-0.357,0.091-0.493-0.13
		c-0.058-0.099-0.543-1.049-1.293-1.471c-1.304-0.73-2.166-0.115-2.456,0.402c-0.462,0.824-0.104,1.655,0.688,2.665
		c1.28,1.607,2,2.835,1.199,4.262c-0.718,1.278-2.46,1.53-3.898,0.724c-1.451-0.813-1.959-2.214-2.035-2.451
		C140.773-234.289,140.707-234.456,140.984-234.607z"/>
	<path display="inline" d="M153.646-236.893c0.086-0.077,0.228-0.084,0.319-0.02l0.187,0.127c0.082,0.056,0.136,0.177,0.111,0.264
		l-2.084,7.992c0.022,0.016,0.034,0.023,0.059,0.04l6.658-4.863c0.072-0.053,0.205-0.047,0.285,0.009l0.188,0.126
		c0.093,0.064,0.139,0.198,0.1,0.308l-3.854,8.851c-0.075,0.187-0.225,0.255-0.399,0.136l-0.467-0.318
		c-0.092-0.063-0.129-0.208-0.097-0.306l3.064-6.705c-0.012-0.009-0.033-0.023-0.046-0.032l-6.349,4.682
		c-0.07,0.055-0.215,0.041-0.285-0.006l-0.21-0.145c-0.069-0.048-0.136-0.179-0.11-0.264l2.04-7.628
		c-0.011-0.009-0.034-0.025-0.046-0.032l-5.115,5.303c-0.066,0.073-0.228,0.082-0.32,0.019l-0.465-0.318
		c-0.177-0.118-0.166-0.283-0.02-0.422L153.646-236.893z"/>
	<path display="inline" d="M162.909-229.964c0.088-0.111,0.267-0.131,0.376-0.043l0.441,0.352c0.11,0.087,0.131,0.267,0.041,0.377
		l-5.816,7.303c-0.088,0.11-0.266,0.131-0.376,0.043l-0.442-0.352c-0.109-0.088-0.13-0.267-0.043-0.377L162.909-229.964z"/>
	<path display="inline" d="M166.839-225.818l-1.844-1.62c-0.116-0.103-0.116-0.271-0.024-0.378l0.271-0.307
		c0.092-0.106,0.261-0.127,0.378-0.024l4.489,3.946c0.117,0.103,0.117,0.272,0.023,0.378l-0.27,0.308
		c-0.094,0.105-0.264,0.126-0.379,0.023l-1.844-1.619l-5.713,6.501c-0.095,0.106-0.273,0.118-0.379,0.025l-0.402-0.354
		c-0.105-0.093-0.117-0.273-0.023-0.378L166.839-225.818z"/>
	<path display="inline" d="M171.705-222.37c0.102-0.1,0.279-0.096,0.379,0.007l0.385,0.394c0.106,0.111,0.094,0.28-0.008,0.379
		l-2.953,2.869l3.988,4.107l2.954-2.869c0.103-0.099,0.271-0.106,0.38,0.005l0.384,0.394c0.099,0.103,0.095,0.282-0.006,0.38
		l-6.696,6.506c-0.102,0.098-0.281,0.096-0.38-0.006l-0.384-0.395c-0.107-0.111-0.096-0.28,0.006-0.379l3.064-2.978l-3.988-4.107
		l-3.064,2.978c-0.103,0.099-0.271,0.104-0.379-0.007l-0.384-0.394c-0.099-0.102-0.096-0.281,0.005-0.379L171.705-222.37z"/>
	<path display="inline" d="M177.199-208.698c0.662-0.526,1.623-0.427,2.123,0.202c0.527,0.661,0.416,1.632-0.245,2.158
		c-0.63,0.5-1.589,0.381-2.115-0.281C176.462-207.248,176.57-208.199,177.199-208.698z"/>
	<path display="inline" d="M179.678-200.614c0.108,0.013,0.231,0.017,0.342,0.028c0.229,0.017,0.41,0.083,0.379,0.341
		c-0.017,0.13-0.269,1.533,0.428,2.58c0.633,0.951,1.646,1.176,2.339,0.714c0.812-0.538,0.823-1.563,0.489-3.291
		c-0.295-1.666-0.282-2.794,1.057-3.685c0.801-0.531,2.514-0.756,3.756,1.111c0.766,1.152,0.737,2.407,0.737,2.407
		c0.011,0.095-0.036,0.329-0.354,0.337c-0.102,0-0.215,0.008-0.315,0.008c-0.235,0.003-0.36-0.083-0.38-0.341
		c-0.008-0.114-0.006-1.183-0.482-1.899c-0.828-1.244-1.877-1.09-2.369-0.762c-0.787,0.523-0.85,1.428-0.604,2.688
		c0.408,2.017,0.488,3.436-0.875,4.343c-1.223,0.812-2.887,0.243-3.801-1.131c-0.922-1.387-0.736-2.867-0.698-3.112
		C179.346-200.426,179.361-200.607,179.678-200.614z"/>
	<path display="inline" d="M191.139-197.845c0.125-0.07,0.291-0.034,0.366,0.101l1.534,2.712c0.854,1.509,0.327,3.442-1.156,4.282
		c-1.521,0.86-3.461,0.323-4.309-1.174l-1.146-2.024l-2.883,1.632c-0.122,0.069-0.296,0.021-0.365-0.102l-0.264-0.466
		c-0.076-0.135-0.021-0.296,0.102-0.365L191.139-197.845z M188.439-192.512c0.569,1.007,1.879,1.4,2.934,0.802
		c0.994-0.561,1.27-1.851,0.699-2.857l-1.104-1.949l-3.633,2.055L188.439-192.512z"/>
	<path display="inline" d="M195.454-189.974c0.128-0.059,0.29-0.01,0.354,0.131l1.537,3.312c0.713,1.534,0.092,3.346-1.43,4.052
		c-1.176,0.546-2.521,0.224-3.486-0.682l-2.435,3.26c-0.126,0.166-0.371,0.172-0.472-0.046l-0.303-0.651
		c-0.055-0.115-0.021-0.209,0.02-0.259l2.6-3.273l-1.134-2.442l-3.261,1.514c-0.129,0.06-0.297-0.002-0.355-0.13l-0.232-0.499
		c-0.064-0.141,0.004-0.297,0.131-0.355L195.454-189.974z M192.714-184.458c0.457,0.984,1.673,1.46,2.722,0.975
		c0.973-0.451,1.404-1.694,0.948-2.679l-1.151-2.48l-3.67,1.703L192.714-184.458z"/>
	<path display="inline" d="M199.48-180.912c0.133-0.049,0.291,0.013,0.346,0.158l1.924,5.213c0.055,0.146-0.025,0.295-0.16,0.344
		l-0.382,0.142c-0.133,0.049-0.291-0.013-0.345-0.158l-1.641-4.445l-3.229,1.19l1.4,3.797c0.049,0.132-0.025,0.295-0.158,0.344
		l-0.385,0.142c-0.146,0.054-0.295-0.026-0.345-0.158l-1.399-3.798l-3.373,1.246l1.641,4.445c0.055,0.146-0.025,0.295-0.159,0.344
		l-0.384,0.142c-0.132,0.048-0.29-0.014-0.344-0.158l-1.924-5.213c-0.055-0.146,0.025-0.295,0.158-0.344L199.48-180.912z"/>
	<path display="inline" d="M193.199-171.306l10.289,1.581c0.094,0.019,0.182,0.067,0.215,0.189l0.037,0.136
		c0.033,0.122-0.014,0.209-0.086,0.272l-7.995,6.648c-0.154,0.131-0.361,0.071-0.418-0.133l-0.151-0.543
		c-0.033-0.122,0.023-0.228,0.085-0.273l1.962-1.629l-1.345-4.82l-2.517-0.367c-0.075-0.009-0.18-0.067-0.215-0.189l-0.15-0.543
		C192.854-171.181,192.999-171.338,193.199-171.306z M197.876-165.658c1.294-1.077,2.604-2.146,3.899-3.224l-0.028-0.108
		l-5.007-0.741L197.876-165.658z"/>
	<path display="inline" d="M205.016-162.822c0.139-0.025,0.283,0.062,0.31,0.201l0.567,3.107c0.488,2.677-1.289,5.267-3.951,5.752
		c-2.69,0.492-5.27-1.302-5.758-3.979l-0.567-3.107c-0.025-0.139,0.079-0.272,0.218-0.298L205.016-162.822z M197.1-158.137
		c0.416,2.274,2.34,3.628,4.627,3.211c2.275-0.416,3.598-2.362,3.183-4.638l-0.382-2.08l-7.807,1.426L197.1-158.137z"/>
	<path display="inline" d="M206.781-151.962c0.14-0.016,0.281,0.096,0.298,0.235l0.063,0.561c0.018,0.14-0.095,0.28-0.234,0.297
		l-9.271,1.07c-0.142,0.017-0.281-0.095-0.298-0.235l-0.065-0.561c-0.016-0.141,0.097-0.281,0.235-0.297L206.781-151.962z"/>
	<path display="inline" d="M207.453-147.509c0.141-0.006,0.26,0.116,0.268,0.257l0.016,0.352l-7.612,6.729
		c0.001,0.015,0.001,0.015,0.002,0.027l7.507-0.356c0.141-0.007,0.273,0.1,0.28,0.254l0.022,0.493
		c0.008,0.141-0.113,0.273-0.256,0.28l-9.478,0.451c-0.142,0.008-0.261-0.113-0.267-0.255l-0.013-0.253l7.763-6.85v-0.014
		l-7.662,0.365c-0.142,0.007-0.272-0.1-0.281-0.255l-0.021-0.493c-0.008-0.142,0.113-0.273,0.254-0.28L207.453-147.509z"/>
	<path display="inline" d="M207.007-122.319c-0.181,1.413-0.801,2.371-1.733,3.221c-0.125,0.098-0.295,0.089-0.395-0.036
		c-0.109-0.143-0.229-0.313-0.341-0.442c-0.124-0.144-0.101-0.226,0.062-0.361c0.721-0.634,1.31-1.582,1.43-2.521
		c0.281-2.21-1.352-4.125-3.52-4.401c-2.154-0.276-4.259,1.163-4.539,3.373c-0.197,1.54,0.266,2.595,0.266,2.595l1.959,0.25
		l0.205-1.609c0.021-0.155,0.146-0.252,0.285-0.233l0.519,0.065c0.153,0.02,0.252,0.146,0.231,0.3l-0.31,2.421
		c-0.019,0.14-0.157,0.234-0.298,0.218l-3.204-0.41c-0.069-0.008-0.175-0.078-0.21-0.139c0,0-0.742-1.546-0.48-3.574
		c0.355-2.799,2.869-4.768,5.666-4.41C205.396-127.658,207.363-125.117,207.007-122.319z"/>
	<path display="inline" d="M204.911-112.625c0.138,0.034,0.233,0.174,0.196,0.324l-1.316,5.398c-0.036,0.151-0.188,0.23-0.322,0.197
		l-0.398-0.097c-0.137-0.033-0.232-0.175-0.195-0.325l1.122-4.603l-3.755-0.916l-0.959,3.933c-0.033,0.137-0.188,0.229-0.323,0.197
		l-0.397-0.098c-0.137-0.033-0.229-0.188-0.195-0.323l0.959-3.933l-3.741-0.912c-0.138-0.035-0.229-0.188-0.196-0.324l0.131-0.534
		c0.037-0.151,0.187-0.23,0.323-0.197L204.911-112.625z"/>
	<path display="inline" d="M202.818-104.405c0.134,0.044,0.213,0.204,0.168,0.339l-0.168,0.509c-0.051,0.147-0.205,0.215-0.34,0.169
		l-5.58-1.857c-1.525-0.508-3.032,0.045-3.555,1.61c-0.525,1.579,0.316,2.932,1.844,3.439l5.606,1.867
		c0.134,0.043,0.22,0.191,0.17,0.339l-0.17,0.508c-0.044,0.134-0.205,0.215-0.339,0.17l-5.661-1.885
		c-2.034-0.677-3.104-2.64-2.399-4.754c0.699-2.101,2.729-3.016,4.762-2.338L202.818-104.405z"/>
	<path display="inline" d="M199.363-94.038c0.129,0.059,0.181,0.221,0.123,0.35l-0.143,0.322l-9.826,2.599
		c-0.006,0.014-0.006,0.014-0.013,0.026l6.873,3.05c0.129,0.057,0.198,0.212,0.136,0.354l-0.199,0.451
		c-0.059,0.129-0.226,0.193-0.354,0.137l-8.678-3.853c-0.13-0.056-0.181-0.218-0.123-0.347l0.103-0.233l10.016-2.639l0.006-0.013
		l-7.016-3.112c-0.129-0.058-0.199-0.212-0.136-0.354l0.2-0.451c0.059-0.13,0.225-0.194,0.354-0.137L199.363-94.038z"/>
	<path display="inline" d="M185.498-86.543l5.943,8.547c0.052,0.08,0.076,0.177,0.011,0.285l-0.073,0.121
		c-0.062,0.109-0.16,0.133-0.255,0.126l-10.328-1.213c-0.2-0.021-0.3-0.214-0.19-0.394l0.289-0.484
		c0.064-0.109,0.181-0.138,0.256-0.126l2.531,0.298l2.568-4.296l-1.469-2.077c-0.047-0.06-0.075-0.176-0.012-0.284l0.291-0.484
		C185.169-86.706,185.384-86.709,185.498-86.543z M184.627-79.261c1.674,0.195,3.354,0.41,5.025,0.605l0.058-0.097l-2.913-4.14
		L184.627-79.261z"/>
	<path display="inline" d="M187.616-72.037c0.112,0.083,0.13,0.252,0.047,0.365l-0.208,0.285l-10.148,0.46
		c-0.008,0.011-0.008,0.011-0.017,0.022l6.067,4.433c0.113,0.083,0.148,0.249,0.059,0.374l-0.291,0.398
		c-0.083,0.113-0.262,0.142-0.375,0.059l-7.66-5.597c-0.113-0.083-0.13-0.252-0.047-0.366l0.148-0.204l10.341-0.46l0.008-0.012
		l-6.192-4.523c-0.113-0.084-0.15-0.249-0.058-0.375l0.291-0.398c0.083-0.113,0.26-0.141,0.374-0.058L187.616-72.037z"/>
	<path display="inline" d="M180.499-62.863c0.106,0.094,0.127,0.263,0.032,0.367l-2.098,2.358c-1.81,2.032-4.941,2.225-6.963,0.425
		c-2.043-1.816-2.217-4.95-0.408-6.982l2.1-2.358c0.094-0.106,0.263-0.104,0.367-0.012L180.499-62.863z M171.939-66.218
		c-1.537,1.728-1.42,4.076,0.316,5.622c1.729,1.536,4.074,1.38,5.61-0.348l1.405-1.58l-5.928-5.273L171.939-66.218z"/>
	<path display="inline" d="M167.502-49.089c-1.068,0.942-2.166,1.252-3.427,1.273c-0.158-0.011-0.281-0.128-0.271-0.287l0.032-0.537
		c-0.009-0.181,0.086-0.245,0.284-0.233c0.97-0.008,2-0.354,2.72-0.986c1.671-1.473,1.71-4.008,0.265-5.646
		c-1.436-1.629-3.955-1.906-5.627-0.434c-0.918,0.812-1.131,1.656-1.319,2.574c-0.03,0.178-0.125,0.241-0.226,0.255l-0.568-0.006
		c-0.141,0.012-0.25-0.156-0.241-0.295c0.104-1.332,0.726-2.461,1.665-3.291c2.113-1.864,5.3-1.685,7.164,0.431
		C169.818-54.156,169.617-50.954,167.502-49.089z"/>
	<path display="inline" d="M159.201-42.489c-2.286,1.653-5.446,1.138-7.102-1.148c-1.654-2.285-1.141-5.426,1.146-7.08
		c2.285-1.654,5.418-1.151,7.072,1.134S161.486-44.144,159.201-42.489z M153.824-49.918c-1.816,1.315-2.238,3.885-0.924,5.701
		c1.314,1.817,3.904,2.243,5.722,0.927c1.817-1.313,2.211-3.897,0.896-5.715C158.202-50.822,155.643-51.232,153.824-49.918z"/>
	<path display="inline" d="M151.492-37.538c0.031,0.112-0.025,0.241-0.123,0.297l-0.195,0.112c-0.086,0.049-0.219,0.042-0.285-0.016
		l-6.272-5.359c-0.024,0.014-0.037,0.021-0.062,0.035l1.465,8.105c0.017,0.087-0.047,0.204-0.133,0.253l-0.195,0.112
		c-0.099,0.056-0.238,0.038-0.318-0.046l-6.273-7.322c-0.135-0.15-0.132-0.314,0.053-0.42l0.488-0.278
		c0.1-0.057,0.246-0.026,0.317,0.045l4.688,5.681c0.014-0.007,0.037-0.021,0.049-0.029l-1.438-7.747
		c-0.018-0.087,0.059-0.212,0.133-0.253l0.219-0.125c0.074-0.042,0.22-0.044,0.285,0.015l5.965,5.162
		c0.015-0.008,0.039-0.021,0.051-0.027l-2.534-6.912c-0.036-0.091,0.024-0.24,0.123-0.296l0.489-0.279
		c0.184-0.104,0.326-0.024,0.387,0.168L151.492-37.538z"/>
	<path display="inline" d="M141.087-32.127c0.06,0.128,0.009,0.291-0.134,0.354l-5.062,2.29c-0.142,0.064-0.297-0.006-0.354-0.134
		l-0.168-0.372c-0.06-0.129-0.009-0.291,0.134-0.354l4.316-1.953l-1.418-3.136l-3.688,1.669c-0.129,0.058-0.297-0.005-0.354-0.134
		l-0.168-0.372c-0.063-0.143,0.004-0.297,0.133-0.355l3.688-1.668l-1.482-3.276l-4.316,1.953c-0.141,0.063-0.296-0.005-0.355-0.135
		l-0.166-0.372c-0.06-0.128-0.008-0.29,0.133-0.354l5.062-2.291c0.143-0.064,0.297,0.006,0.354,0.134L141.087-32.127z"/>
	<path display="inline" d="M132.9-28.533c0.047,0.133-0.017,0.29-0.148,0.337l-2.979,1.053c-2.564,0.907-5.401-0.438-6.305-2.988
		c-0.912-2.579,0.45-5.408,3.016-6.316l2.978-1.052c0.134-0.047,0.281,0.035,0.328,0.168L132.9-28.533z M127.021-35.604
		c-2.18,0.771-3.211,2.884-2.436,5.076c0.77,2.181,2.902,3.176,5.082,2.406l1.992-0.705l-2.645-7.482L127.021-35.604z"/>
	<path display="inline" d="M119.33-29.248l4.479,3.695c0.155,0.149,0.104,0.396-0.113,0.452l-0.643,0.169
		c-0.095,0.024-0.193-0.023-0.25-0.065l-3.752-3.085l-1.759,4.527c-0.026,0.065-0.091,0.154-0.187,0.18l-0.643,0.168
		c-0.218,0.057-0.384-0.133-0.32-0.34l2.14-5.413l-1.14-4.353c-0.035-0.135,0.056-0.29,0.19-0.325l0.532-0.14
		c0.15-0.039,0.292,0.055,0.326,0.191L119.33-29.248z"/>
	<path display="inline" d="M106.247-22.37l2.433-0.32c0.153-0.021,0.281,0.091,0.301,0.23l0.054,0.405
		c0.019,0.139-0.077,0.28-0.229,0.3l-5.928,0.782c-0.152,0.021-0.281-0.089-0.3-0.23l-0.054-0.404
		c-0.02-0.14,0.074-0.28,0.229-0.301l2.431-0.32l-1.133-8.582c-0.02-0.14,0.092-0.283,0.23-0.301l0.531-0.07
		c0.14-0.019,0.281,0.091,0.301,0.23L106.247-22.37z"/>
	<path display="inline" d="M100.451-20.976c0.007,0.141-0.113,0.274-0.254,0.281l-0.551,0.028c-0.153,0.009-0.272-0.112-0.281-0.253
		l-0.213-4.113l-5.719,0.298l0.215,4.112c0.006,0.141-0.1,0.273-0.254,0.281l-0.549,0.029c-0.142,0.007-0.275-0.113-0.283-0.254
		l-0.483-9.323c-0.009-0.142,0.112-0.274,0.254-0.282l0.549-0.029c0.155-0.007,0.272,0.114,0.281,0.255l0.224,4.267l5.717-0.297
		l-0.222-4.268c-0.008-0.141,0.099-0.272,0.255-0.282l0.547-0.027c0.143-0.008,0.275,0.112,0.282,0.254L100.451-20.976z"/>
	<path display="inline" d="M89.049-20.579c-0.006,0.142-0.123,0.264-0.277,0.258l-3.647-0.138c-1.69-0.064-3.021-1.44-2.957-3.117
		c0.05-1.296,0.95-2.348,2.192-2.794l-1.795-3.65c-0.09-0.187,0.018-0.408,0.258-0.399l0.718,0.027
		c0.127,0.005,0.194,0.078,0.222,0.136l1.73,3.803l2.689,0.103l0.137-3.592c0.006-0.142,0.137-0.264,0.277-0.258l0.551,0.021
		c0.153,0.006,0.262,0.137,0.256,0.277L89.049-20.579z M85.385-25.527c-1.084-0.041-2.062,0.825-2.105,1.979
		c-0.039,1.07,0.869,2.021,1.953,2.062l2.731,0.104l0.154-4.043L85.385-25.527z"/>
	<path display="inline" d="M74.708-21.236c-2.795-0.372-4.731-2.92-4.358-5.716c0.371-2.796,2.902-4.72,5.699-4.348
		c2.795,0.373,4.723,2.891,4.35,5.687C80.025-22.818,77.504-20.863,74.708-21.236z M75.919-30.321
		c-2.224-0.296-4.296,1.277-4.592,3.499c-0.296,2.222,1.289,4.312,3.512,4.607c2.224,0.297,4.285-1.307,4.581-3.529
		C79.715-27.966,78.141-30.025,75.919-30.321z"/>
	<path display="inline" d="M67.027-22.885c-0.032,0.138-0.186,0.232-0.322,0.2l-0.521-0.123c-0.149-0.036-0.23-0.186-0.199-0.322
		l1.351-5.72c0.368-1.564-0.317-3.016-1.923-3.395c-1.619-0.381-2.889,0.58-3.258,2.143l-1.354,5.749
		c-0.033,0.137-0.172,0.234-0.322,0.199l-0.521-0.123c-0.138-0.032-0.231-0.185-0.2-0.322l1.368-5.803
		c0.492-2.085,2.351-3.326,4.517-2.816c2.154,0.509,3.248,2.446,2.756,4.531L67.027-22.885z"/>
	<path display="inline" d="M52.195-26.542c-1.35-0.454-2.168-1.251-2.816-2.332c-0.07-0.144-0.029-0.309,0.114-0.379
		c0.159-0.08,0.353-0.165,0.499-0.248c0.166-0.094,0.242-0.053,0.344,0.13c0.479,0.831,1.293,1.597,2.188,1.898
		c2.113,0.711,4.312-0.514,5.008-2.585c0.693-2.059-0.303-4.403-2.414-5.115c-1.471-0.494-2.596-0.248-2.596-0.248l-0.629,1.871
		l1.537,0.519c0.146,0.05,0.217,0.192,0.172,0.325l-0.166,0.495c-0.049,0.146-0.192,0.219-0.34,0.169l-2.312-0.778
		c-0.134-0.046-0.2-0.202-0.155-0.336l1.031-3.062c0.021-0.066,0.111-0.155,0.179-0.178c0,0,1.659-0.423,3.599,0.229
		c2.674,0.901,4.109,3.751,3.209,6.424C57.746-27.069,54.87-25.642,52.195-26.542z"/>
	<path display="inline" d="M46.07-29.22c-0.059,0.129-0.225,0.193-0.354,0.136l-0.502-0.226c-0.142-0.063-0.192-0.225-0.135-0.354
		l1.685-3.756l-5.223-2.343l-1.686,3.757c-0.058,0.129-0.213,0.198-0.354,0.135L39-32.096c-0.129-0.058-0.191-0.226-0.135-0.354
		l3.818-8.516c0.057-0.128,0.226-0.193,0.354-0.135l0.502,0.226c0.143,0.063,0.191,0.225,0.135,0.354l-1.746,3.897l5.221,2.342
		l1.748-3.897c0.059-0.129,0.213-0.198,0.354-0.135l0.502,0.225c0.129,0.058,0.19,0.226,0.136,0.354L46.07-29.22z"/>
	<path display="inline" d="M31.678-35.899c-2.442-1.409-3.26-4.503-1.85-6.944c1.409-2.44,4.483-3.254,6.924-1.845
		c2.441,1.41,3.264,4.472,1.854,6.913C37.194-35.335,34.118-34.489,31.678-35.899z M36.26-43.834
		c-1.941-1.12-4.457-0.457-5.577,1.483c-1.121,1.941-0.453,4.477,1.488,5.597c1.94,1.121,4.458,0.427,5.579-1.515
		C38.871-40.209,38.2-42.713,36.26-43.834z"/>
	<path display="inline" d="M25.211-40.336c-0.082,0.115-0.26,0.145-0.375,0.062l-0.435-0.312c-0.126-0.09-0.144-0.259-0.062-0.375
		l3.424-4.778c0.936-1.306,0.852-2.908-0.488-3.869c-1.353-0.968-2.892-0.562-3.828,0.744l-3.438,4.802
		c-0.082,0.114-0.249,0.152-0.374,0.061l-0.436-0.312c-0.114-0.082-0.145-0.259-0.062-0.373l3.473-4.849
		c1.247-1.74,3.438-2.184,5.248-0.887c1.799,1.289,2.073,3.496,0.825,5.239L25.211-40.336z"/>
	<path display="inline" d="M15.936-48.18l1.879,1.577c0.12,0.1,0.125,0.269,0.034,0.377l-0.263,0.313
		c-0.091,0.108-0.259,0.133-0.379,0.033l-4.579-3.843c-0.12-0.1-0.124-0.27-0.033-0.378l0.263-0.312
		c0.091-0.108,0.259-0.133,0.378-0.033l1.88,1.577l5.564-6.634c0.09-0.107,0.269-0.123,0.378-0.033l0.41,0.345
		c0.108,0.091,0.124,0.27,0.032,0.378L15.936-48.18z"/>
	<path display="inline" d="M8.21-55.198l1.733,1.736c0.109,0.109,0.1,0.279,0,0.378l-0.291,0.29c-0.099,0.1-0.269,0.109-0.379-0.001
		l-4.224-4.23c-0.109-0.111-0.1-0.279,0.001-0.38l0.288-0.288c0.101-0.101,0.271-0.11,0.38,0l1.733,1.736l6.128-6.118
		c0.1-0.101,0.279-0.101,0.378,0.001l0.379,0.379c0.1,0.1,0.1,0.279,0,0.379L8.21-55.198z"/>
	<path display="inline" d="M3.592-58.95c-0.107,0.091-0.286,0.076-0.377-0.03l-0.356-0.419c-0.101-0.118-0.077-0.287,0.03-0.378
		l3.136-2.669l-3.711-4.361l-3.136,2.669C-0.929-64.047-1.1-64.05-1.2-64.168l-0.356-0.419c-0.093-0.107-0.077-0.287,0.03-0.378
		l7.111-6.051c0.107-0.092,0.286-0.077,0.378,0.029l0.356,0.42c0.101,0.117,0.077,0.286-0.03,0.378l-3.255,2.77l3.711,4.361
		L10-65.828c0.107-0.092,0.277-0.088,0.378,0.03l0.356,0.419c0.09,0.107,0.076,0.286-0.031,0.378L3.592-58.95z"/>
	<path display="inline" d="M-3.645-67.767c-0.114,0.082-0.283,0.063-0.373-0.062l-3.223-4.528c-0.09-0.125-0.052-0.292,0.062-0.372
		l0.334-0.238c0.114-0.081,0.283-0.062,0.373,0.063l2.748,3.86l2.804-1.995l-2.348-3.299c-0.081-0.115-0.052-0.291,0.063-0.373
		l0.333-0.236C-2.746-75.038-2.58-75-2.498-74.885l2.347,3.298l2.93-2.086l-2.747-3.861c-0.091-0.126-0.053-0.291,0.062-0.373
		l0.333-0.238c0.115-0.08,0.284-0.062,0.374,0.064l3.223,4.526c0.09,0.127,0.052,0.292-0.063,0.374L-3.645-67.767z"/>
	<path display="inline" d="M-10.074-77.226c-0.147,0.144-0.324,0.112-0.419-0.062l-0.282-0.521
		c-0.052-0.099-0.019-0.245,0.054-0.316l5.495-5.194l-0.026-0.05l-7.706,1.485c-0.088,0.016-0.189-0.026-0.25-0.138l-0.121-0.224
		c-0.053-0.099-0.038-0.219,0.023-0.284l5.448-5.666l-0.027-0.049l-7.337,1.782c-0.1,0.022-0.24-0.03-0.294-0.129l-0.281-0.521
		c-0.094-0.174-0.023-0.341,0.177-0.384l9.603-2.157c0.113-0.028,0.241,0.03,0.295,0.13l0.106,0.198
		c0.047,0.087,0.032,0.207-0.022,0.283l-5.553,5.771l0.034,0.062l7.849-1.515c0.096-0.003,0.205,0.051,0.252,0.138l0.106,0.198
		c0.054,0.099,0.033,0.238-0.053,0.317L-10.074-77.226z"/>
	<path display="inline" d="M-18.789-93.842c-1.06-2.615,0.199-5.56,2.814-6.619c2.614-1.059,5.541,0.191,6.601,2.807
		c1.058,2.616-0.179,5.537-2.795,6.596C-14.783-89.999-17.73-91.227-18.789-93.842z M-10.289-97.283
		c-0.842-2.079-3.236-3.104-5.315-2.262c-2.079,0.842-3.111,3.254-2.27,5.333c0.841,2.079,3.257,3.08,5.336,2.238
		C-10.459-92.816-9.447-95.204-10.289-97.283z"/>
	<path display="inline" d="M-21.166-101.396c-0.135,0.04-0.288-0.032-0.333-0.181l-1.043-3.501
		c-0.483-1.623,0.393-3.327,2.001-3.806c1.244-0.37,2.531,0.145,3.354,1.18l2.881-2.876c0.148-0.146,0.394-0.117,0.462,0.113
		l0.205,0.689c0.036,0.122-0.011,0.21-0.057,0.253l-3.048,2.865l0.769,2.582l3.449-1.027c0.135-0.04,0.293,0.046,0.332,0.181
		l0.158,0.527c0.044,0.147-0.045,0.292-0.182,0.333L-21.166-101.396z M-17.655-106.461c-0.31-1.041-1.445-1.688-2.554-1.358
		c-1.027,0.306-1.637,1.474-1.326,2.515l0.781,2.623l3.88-1.156L-17.655-106.461z"/>
	<path display="inline" d="M-23.808-110.898c-0.139,0.029-0.286-0.053-0.319-0.205l-0.118-0.537
		c-0.029-0.138,0.067-0.289,0.205-0.318l8.461-1.846l-0.866-3.969c-0.033-0.151,0.067-0.289,0.205-0.318l0.399-0.088
		c0.138-0.029,0.286,0.054,0.319,0.205l1.039,4.768c0.033,0.151-0.066,0.289-0.204,0.317L-23.808-110.898z"/>
	<path display="inline" d="M-25.344-118.248c-0.142,0.019-0.281-0.076-0.3-0.216l-0.424-3.131c-0.366-2.698,1.53-5.203,4.213-5.566
		c2.711-0.367,5.206,1.544,5.57,4.241l0.424,3.131c0.02,0.141-0.091,0.27-0.231,0.288L-25.344-118.248z M-17.218-122.565
		c-0.311-2.292-2.171-3.734-4.477-3.423c-2.293,0.311-3.703,2.196-3.393,4.488l0.284,2.097l7.869-1.065L-17.218-122.565z"/>
	<path display="inline" d="M-21.574-131.399c-0.845,0.037-1.565-0.608-1.601-1.411c-0.038-0.845,0.622-1.565,1.468-1.604
		c0.803-0.036,1.509,0.625,1.547,1.47C-20.125-132.142-20.771-131.437-21.574-131.399z"/>
</g>
<g>
	<path fill="#333842" d="M3.204,45.275c0.562-0.229,1.135-0.409,1.716-0.531c0.577-0.122,1.159-0.225,1.742-0.311
		c1.532-0.227,3.047-0.207,4.539,0.055c1.494,0.269,2.803,0.916,3.92,1.943c0.515,0.445,0.878,0.768,1.095,0.959
		c0.214,0.189,0.329,0.359,0.352,0.506c0.011,0.07-0.017,0.15-0.076,0.231c-0.064,0.088-0.214,0.22-0.445,0.405
		c-0.233,0.186-0.513,0.445-0.833,0.789c-0.063,0.091-0.144,0.172-0.241,0.26c-0.099,0.096-0.219,0.184-0.35,0.277
		c-0.645,0.69-1.254,1.512-1.822,2.449c-0.569,0.941-0.859,1.898-0.865,2.866c0.01,0.597,0.006,1.193-0.02,1.792
		c-0.021,0.602,0.006,1.155,0.082,1.67c0.662,4.006,2.637,6.77,5.918,8.299c3.278,1.533,6.782,2.021,10.507,1.475
		c0.143-0.021,0.291-0.043,0.438-0.064c0.146-0.021,0.287-0.041,0.434-0.062c3.41-0.651,6.484-2.069,9.223-4.262
		c2.733-2.194,4.315-5.115,4.752-8.754c0.062-0.604,0.229-1.547,0.235-2.033c0.003-0.482-0.171-0.588-0.247-1.098
		c-0.431-2.918-1.885-5.334-4.365-7.246c-2.482-1.904-5.15-3.697-8.006-5.365c-0.073,0.012-0.127,0.004-0.176-0.028
		c-0.04-0.031-0.1-0.078-0.185-0.144c-0.083-0.06-0.146-0.104-0.188-0.137c-0.044-0.029-0.101-0.044-0.171-0.033
		c-3.422-1.956-6.609-4.116-9.564-6.478c-2.961-2.366-4.737-5.551-5.327-9.567c-0.075-1.029-0.289-1.229-0.289-2.927
		c0-1.045,0.368-2.378,0.562-3.599c0.784-4.288,3.24-7.857,7.373-10.706C26.641,3.346,30.664,1.38,34.987,0
		C15.424,1.295-0.025,17.559-0.025,37.451c0,3.058,0.351,6.039,1.042,8.884C1.688,45.945,2.42,45.589,3.204,45.275z"/>
	<path fill="#333842" d="M65.76,12.764c-0.363,0.505-0.805,0.955-1.324,1.357c-1.44,1.104-3.063,1.868-4.863,2.279
		c-0.147,0.02-0.276,0.043-0.385,0.056c-0.109,0.017-0.24,0.035-0.383,0.058c-0.513,0.076-1.011,0.111-1.494,0.108
		c-0.487,0-0.953-0.011-1.399-0.017c-0.533-0.071-1.074-0.196-1.62-0.379c-0.555-0.178-1.105-0.377-1.652-0.593
		c-0.318-0.107-0.593-0.21-0.832-0.325c-0.246-0.115-0.521-0.224-0.838-0.331c0.398-0.354,0.747-0.664,1.043-0.933
		c0.293-0.269,0.573-0.53,0.829-0.79c0.397-0.357,0.709-0.781,0.935-1.263c0.227-0.475,0.854-1.29,0.943-2.193
		c0.029-0.304,0.047-0.588,0.045-0.843c-0.004-0.268,0.029-0.533,0-0.751c-0.271-1.828-1.884-2.955-3.818-3.677
		c-1.93-0.727-3.965-0.964-6.094-0.729c-0.069,0.009-0.123,0.02-0.16,0.025c-0.039,0.005-0.094,0.014-0.164,0.024
		c-1.828,0.271-3.504,0.906-5.033,1.915c-1.526,1.007-2.282,2.175-2.617,3.942c-0.036,0.301-0.063,0.586-0.101,0.85
		c-0.038,0.268-0.031,0.546,0.012,0.836c0.275,1.379,0.831,2.791,2.028,3.811c1.191,1.021,2.442,1.915,3.75,2.693
		c0.646,0.353,1.256,0.678,1.82,0.958c0.561,0.298,1.086,0.553,1.568,0.781c0.477,0.227,0.982,0.489,1.51,0.785
		c0.531,0.295,1.067,0.55,1.624,0.767c3.894,2.114,7.554,4.592,10.995,7.445c3.438,2.849,5.512,6.684,6.219,11.502
		c0.174,1.166,0.239,2.368,0.197,3.603c-0.045,1.242-0.18,2.586-0.418,4.037c-1.214,6.439-4.996,11.916-11.335,16.432
		c-6.351,4.512-13.384,7.634-21.108,9.367c-0.797,0.189-1.59,0.359-2.387,0.52c-0.357,0.068-0.718,0.135-1.076,0.197
		C32.538,74.751,34.98,75,37.482,75c20.734,0,37.543-16.809,37.543-37.541C75.025,28.001,71.527,19.367,65.76,12.764z"/>
</g>
</svg>
